<svg width="24" height="24" viewBox="0 0 24 24" fill="none" xmlns="http://www.w3.org/2000/svg">
<path d="M8.65132 22.05H8.41972C7.33023 21.9902 6.30256 21.5249 5.53885 20.7456C4.77514 19.9663 4.33067 18.9294 4.29287 17.839C4.27162 17.1836 4.39994 16.5321 4.66809 15.9338C4.93624 15.3355 5.33716 14.8061 5.84044 14.3859C6.56893 13.7854 7.2228 13.0997 7.78806 12.3435C8.561 11.3086 9.67497 10.5804 10.933 10.2876C12.1911 9.99472 13.5121 10.1562 14.6626 10.7433C15.4058 11.1242 16.0508 11.6718 16.5471 12.3435C17.1079 13.0839 17.7507 13.7584 18.4631 14.3543C18.9664 14.7745 19.3673 15.3039 19.6355 15.9022C19.9036 16.5005 20.0319 17.1521 20.0107 17.8074C19.9729 18.8978 19.5284 19.9347 18.7647 20.714C18.001 21.4933 16.9733 21.9586 15.8838 22.0184C14.9942 22.0696 14.1108 21.8414 13.3572 21.3657C13.0117 21.1366 12.6028 21.0224 12.1886 21.0394C11.7657 21.0317 11.3493 21.1449 10.9885 21.3657C10.2915 21.814 9.47999 22.0516 8.65132 22.05ZM12.1255 11.6697C11.503 11.669 10.8894 11.8169 10.3358 12.1014C9.8041 12.3792 9.34037 12.7711 8.97768 13.2489C8.34777 14.0871 7.62363 14.85 6.81951 15.5229C6.37896 15.8872 6.05901 16.3764 5.90173 16.9261C5.74445 17.4757 5.75722 18.0601 5.93835 18.6024C6.11949 19.1446 6.4605 19.6194 6.91655 19.9641C7.37259 20.3089 7.92231 20.5076 8.49341 20.534H8.6408C9.16861 20.5357 9.6864 20.3899 10.1357 20.1129C10.7286 19.7516 11.4101 19.5621 12.1044 19.5655C12.8153 19.5344 13.5182 19.7258 14.1152 20.1129C14.7241 20.5016 15.4584 20.6429 16.1681 20.5079C16.8777 20.3729 17.5089 19.9719 17.9326 19.3868C18.3562 18.8017 18.5403 18.0769 18.4472 17.3606C18.354 16.6443 17.9906 15.9906 17.4314 15.5334C16.6457 14.8576 15.9393 14.0947 15.3259 13.2594C14.9511 12.7768 14.4726 12.3846 13.9257 12.1119C13.3696 11.8226 12.7523 11.6709 12.1255 11.6697Z" fill="#F3725F"/>
<path d="M8.99873 9.05886C8.27355 9.04783 7.58164 8.7527 7.07176 8.23692C6.56188 7.72113 6.27474 7.02587 6.27207 6.30061C6.27162 5.85321 6.38001 5.41241 6.5879 5.01624L7.43011 3.04756C7.56173 2.73702 7.78142 2.47183 8.06205 2.28474C8.34269 2.09764 8.67198 1.99685 9.00926 1.9948H9.0619C9.39376 2.00293 9.71624 2.10656 9.99072 2.29328C10.2652 2.47999 10.48 2.74188 10.6095 3.04756L11.4622 5.1531C11.701 5.67465 11.7746 6.25678 11.673 6.82134C11.5713 7.3859 11.2994 7.90586 10.8937 8.3114C10.3835 8.79791 9.70365 9.06609 8.99873 9.05886ZM8.99873 3.42656C8.94183 3.4314 8.8873 3.45158 8.84095 3.48495C8.79461 3.51832 8.75818 3.56363 8.73554 3.61606L7.87227 5.62684C7.7559 5.8324 7.69427 6.0644 7.6933 6.30061C7.69491 6.64685 7.83077 6.97896 8.0723 7.22705C8.19032 7.35128 8.33237 7.4502 8.48983 7.5178C8.64729 7.5854 8.81685 7.62026 8.9882 7.62026C9.15956 7.62026 9.32912 7.5854 9.48658 7.5178C9.64403 7.4502 9.78609 7.35128 9.90411 7.22705C10.029 7.10749 10.128 6.96358 10.195 6.80423C10.262 6.64488 10.2955 6.47347 10.2936 6.30061C10.2986 6.08332 10.2555 5.86761 10.1673 5.66895L9.30403 3.56342C9.26947 3.51599 9.22312 3.47841 9.16957 3.45441C9.11602 3.4304 9.05713 3.4208 8.99873 3.42656Z" fill="#1BA5B0"/>
<path d="M15.0311 9.05886C14.306 9.05053 13.6136 8.75592 13.1048 8.23925C12.596 7.72258 12.3121 7.02573 12.3149 6.30061C12.3161 5.85464 12.4206 5.415 12.6202 5.01624L13.4625 3.04756C13.5948 2.73538 13.8161 2.46906 14.0988 2.28184C14.3815 2.09462 14.7131 1.99479 15.0521 1.9948C15.384 2.00293 15.7065 2.10656 15.981 2.29328C16.2554 2.47999 16.4703 2.74188 16.5997 3.04756L17.463 5.1531C17.6228 5.51823 17.7053 5.91254 17.7051 6.31114C17.7136 7.02972 17.4369 7.72236 16.9357 8.23737C16.4345 8.75237 15.7496 9.04777 15.0311 9.05886ZM15.0311 3.42656C14.9745 3.43247 14.9205 3.45306 14.8743 3.4863C14.8281 3.51954 14.7914 3.56427 14.7679 3.61606L13.9046 5.62684C13.796 5.83495 13.7383 6.06586 13.7362 6.30061C13.7339 6.64559 13.866 6.9779 14.1046 7.22705C14.2227 7.35128 14.3647 7.4502 14.5222 7.5178C14.6796 7.5854 14.8492 7.62026 15.0206 7.62026C15.1919 7.62026 15.3615 7.5854 15.5189 7.5178C15.6764 7.4502 15.8184 7.35128 15.9365 7.22705C16.0613 7.10749 16.1603 6.96358 16.2273 6.80423C16.2943 6.64488 16.3279 6.47347 16.326 6.30061C16.331 6.08332 16.2878 5.86761 16.1997 5.66895L15.3469 3.56342C15.3107 3.51514 15.2625 3.47712 15.2071 3.45313C15.1518 3.42913 15.0911 3.41997 15.0311 3.42656Z" fill="#1BA5B0"/>
<path d="M4.74556 13.3015C4.17534 13.3069 3.61834 13.1298 3.15588 12.7962C2.5762 12.3823 2.17988 11.7595 2.05048 11.0591C1.9661 10.6182 1.98775 10.1636 2.11364 9.73266L2.57686 7.62712C2.65701 7.30109 2.82993 7.00527 3.07468 6.77546C3.31944 6.54565 3.62555 6.39169 3.95598 6.33222C4.28529 6.27514 4.62411 6.31547 4.93082 6.44825C5.23753 6.58103 5.49879 6.80049 5.68252 7.07968L6.93531 8.95361C7.15586 9.2703 7.30986 9.62845 7.388 10.0064C7.46308 10.3682 7.46353 10.7416 7.38931 11.1037C7.31509 11.4657 7.16777 11.8088 6.95637 12.1119C6.75643 12.4026 6.50095 12.6509 6.20462 12.8424C5.9083 13.0339 5.57701 13.1649 5.22983 13.2278C5.0712 13.2682 4.909 13.2928 4.74556 13.3015ZM4.26129 7.72187H4.20865C4.15062 7.73388 4.09715 7.76196 4.05433 7.80292C4.01151 7.84387 3.98108 7.89605 3.96651 7.95348L3.49277 10.059C3.43609 10.2907 3.43609 10.5327 3.49277 10.7644C3.55873 11.1001 3.75089 11.3977 4.02968 11.5961C4.23937 11.7439 4.48827 11.8262 4.74479 11.8324C5.00131 11.8386 5.25388 11.7684 5.47046 11.6308C5.68703 11.4932 5.85783 11.2943 5.96119 11.0595C6.06455 10.8246 6.09581 10.5643 6.05099 10.3117C6.01316 10.0969 5.93067 9.89248 5.80885 9.7116L4.52448 7.90084C4.50038 7.85038 4.46331 7.80722 4.41707 7.77578C4.37083 7.74434 4.31707 7.72573 4.26129 7.72187Z" fill="#1BA5B0"/>
<path d="M19.2737 13.3121C19.1546 13.3222 19.0349 13.3222 18.9158 13.3121C18.5575 13.2665 18.2118 13.1499 17.8991 12.9692C17.5864 12.7884 17.3128 12.5471 17.0945 12.2593C16.7329 11.7861 16.5335 11.2089 16.5259 10.6134C16.5183 10.0179 16.703 9.43587 17.0524 8.95362L18.1052 7.10075C18.2745 6.80876 18.5276 6.57437 18.8316 6.42795C19.1357 6.28153 19.4768 6.22984 19.8106 6.27959C20.1472 6.3246 20.4631 6.46725 20.7195 6.68991C20.9758 6.91256 21.1613 7.20546 21.2529 7.53238L21.832 9.63791C21.9474 10.0233 21.9797 10.4288 21.9267 10.8275C21.8518 11.4902 21.5357 12.102 21.0387 12.5466C20.5417 12.9912 19.9406 13.3111 19.2737 13.3121ZM19.6317 7.71135C19.5744 7.71503 19.5194 7.73475 19.4728 7.76826C19.4263 7.80178 19.3901 7.84773 19.3685 7.90085L18.242 9.74319C18.1039 9.93586 18.017 10.1605 17.9894 10.3959C17.9461 10.7392 18.0366 11.086 18.242 11.3645C18.341 11.504 18.4672 11.6221 18.6132 11.7114C18.7591 11.8008 18.9217 11.8595 19.091 11.8841C19.2603 11.9087 19.4329 11.8987 19.5982 11.8546C19.7635 11.8105 19.9182 11.7333 20.0528 11.6276C20.1918 11.5262 20.3084 11.3972 20.3953 11.2486C20.4823 11.1001 20.5377 10.9353 20.5581 10.7644C20.6021 10.5526 20.6021 10.334 20.5581 10.1222L19.9159 7.90085C19.9018 7.84139 19.8702 7.78753 19.8252 7.74624C19.7801 7.70495 19.7237 7.67813 19.6633 7.66924L19.6317 7.71135Z" fill="#1BA5B0"/>
</svg>
