<svg width="24" height="24" viewBox="0 0 24 24" fill="none" xmlns="http://www.w3.org/2000/svg">
<path fill-rule="evenodd" clip-rule="evenodd" d="M4.96133 2.06665C5.20884 2.09165 5.4215 2.25318 5.51197 2.48492C5.59861 2.70683 5.80853 3.01028 6.13326 3.36726C6.44785 3.71311 6.82953 4.06563 7.20591 4.38615C7.5807 4.7053 7.94101 4.98493 8.20814 5.18506C8.34143 5.28491 8.45081 5.36445 8.52634 5.41865C8.56408 5.44574 8.59332 5.46646 8.6128 5.48019L8.63454 5.49545L8.63961 5.49899L8.64065 5.49971C8.64068 5.49973 8.64062 5.49969 8.64065 5.49971C8.94132 5.70822 9.01618 6.12106 8.80771 6.42178C8.59922 6.72252 8.1864 6.79731 7.88566 6.58882L8.26317 6.04427C7.88566 6.58882 7.88574 6.58887 7.88566 6.58882L7.88259 6.58668L7.87545 6.5817L7.84943 6.56344C7.82703 6.54765 7.79469 6.52472 7.75369 6.4953C7.67173 6.43648 7.55497 6.35156 7.41358 6.24564C7.13138 6.03422 6.74826 5.73702 6.34673 5.39509C5.9468 5.05452 5.51927 4.6617 5.15294 4.25897C5.14518 4.25044 5.13743 4.24188 5.12968 4.23329C5.09073 4.5957 5.08626 4.99383 5.12066 5.3908C5.1626 5.87482 5.26042 6.33525 5.40829 6.71375C5.55901 7.09952 5.74164 7.3498 5.92007 7.48164C6.21439 7.6991 6.2767 8.11398 6.05924 8.40831C5.84178 8.70263 5.4269 8.76493 5.13257 8.54747C4.67943 8.21266 4.37521 7.71113 4.17396 7.19601C3.96986 6.67362 3.85057 6.0841 3.80041 5.5052C3.75013 4.92495 3.76739 4.33346 3.8502 3.80051C3.93122 3.27903 4.08296 2.76145 4.33817 2.36637C4.47315 2.1574 4.71381 2.04165 4.96133 2.06665Z" fill="#F3725F"/>
<path fill-rule="evenodd" clip-rule="evenodd" d="M19.4597 2.06665C19.7072 2.04165 19.9479 2.1574 20.0829 2.36637C20.3382 2.76158 20.4899 3.2793 20.5709 3.80246C20.6537 4.33709 20.6709 4.93151 20.6207 5.51748C20.5706 6.10251 20.4517 6.69927 20.2496 7.23315C20.05 7.76074 19.752 8.27177 19.3152 8.63038C19.0323 8.86258 18.6148 8.82153 18.3826 8.53869C18.1504 8.25585 18.1915 7.83833 18.4743 7.60613C18.6691 7.44624 18.8579 7.16657 19.0102 6.7641C19.1602 6.36793 19.2583 5.8953 19.3003 5.40444C19.3349 5.00077 19.3303 4.59843 19.2911 4.23357C19.2835 4.24207 19.2758 4.25053 19.2681 4.25897C18.9018 4.6617 18.4743 5.05452 18.0743 5.39509C17.6728 5.73702 17.2897 6.03422 17.0075 6.24564C16.8661 6.35156 16.7493 6.43648 16.6674 6.4953C16.6264 6.52472 16.594 6.54765 16.5716 6.56344L16.5456 6.5817L16.5385 6.58668L16.5356 6.58871C16.5355 6.58876 16.5354 6.58882 16.1579 6.04427L16.5356 6.58871C16.2348 6.7972 15.8218 6.72252 15.6133 6.42178C15.4049 6.12106 15.4796 5.7083 15.7803 5.49979C15.7803 5.49977 15.7803 5.49981 15.7803 5.49979L15.7814 5.49899L15.7865 5.49545L15.8083 5.48019C15.8277 5.46646 15.857 5.44574 15.8947 5.41865C15.9702 5.36445 16.0796 5.28491 16.2129 5.18506C16.48 4.98493 16.8404 4.7053 17.2151 4.38615C17.5915 4.06563 17.9732 3.71311 18.2878 3.36726C18.6125 3.01028 18.8224 2.70683 18.9091 2.48492C18.9996 2.25318 19.2122 2.09165 19.4597 2.06665Z" fill="#F3725F"/>
<path fill-rule="evenodd" clip-rule="evenodd" d="M11.9474 5.92458C7.79484 5.92458 4.44675 9.23808 4.44675 13.3032C4.44675 17.3683 7.79484 20.6819 11.9474 20.6819C16.0999 20.6819 19.448 17.3683 19.448 13.3032C19.448 9.23808 16.0999 5.92458 11.9474 5.92458ZM3.02695 13.3032C3.02695 8.43399 7.03081 4.50478 11.9474 4.50478C16.8639 4.50478 20.8678 8.43399 20.8678 13.3032C20.8678 18.1724 16.8639 22.1017 11.9474 22.1017C7.03081 22.1017 3.02695 18.1724 3.02695 13.3032Z" fill="#18A5B0"/>
<path fill-rule="evenodd" clip-rule="evenodd" d="M6.11823 13.3755C6.22655 13.2298 6.3974 13.1439 6.57895 13.1439H17.3158C17.4929 13.1439 17.6602 13.2257 17.7689 13.3655C17.8777 13.5053 17.9158 13.6875 17.8723 13.8592C17.0891 16.9453 14.6988 19.166 11.9474 19.166C9.17628 19.166 6.91198 16.8186 6.02918 13.8834C5.97689 13.7095 6.00991 13.5212 6.11823 13.3755ZM7.38897 14.2921C8.30326 16.5449 10.0743 18.0178 11.9474 18.0178C13.8484 18.0178 15.6998 16.5958 16.5393 14.2921H7.38897Z" fill="#18A5B0"/>
</svg>
