<svg width="24" height="24" viewBox="0 0 24 24" fill="none" xmlns="http://www.w3.org/2000/svg">
<g clip-path="url(#clip0_180_467)">
<path fill-rule="evenodd" clip-rule="evenodd" d="M7.8 14.9C6.47452 14.9 5.4 15.9745 5.4 17.3C5.4 18.6255 6.47452 19.7 7.8 19.7C9.12548 19.7 10.2 18.6255 10.2 17.3C10.2 15.9745 9.12548 14.9 7.8 14.9ZM4 17.3C4 15.2013 5.70132 13.5 7.8 13.5C9.89868 13.5 11.6 15.2013 11.6 17.3C11.6 19.3987 9.89868 21.1 7.8 21.1C5.70132 21.1 4 19.3987 4 17.3Z" fill="#F37261"/>
<path fill-rule="evenodd" clip-rule="evenodd" d="M20.1165 5.92756C20.3775 6.21284 20.3577 6.65561 20.0724 6.91653L11.8724 14.4165C11.5872 14.6775 11.1444 14.6577 10.8835 14.3724C10.6226 14.0872 10.6423 13.6444 10.9276 13.3835L19.1276 5.88347C19.4128 5.62255 19.8556 5.64229 20.1165 5.92756Z" fill="#1BA5B0"/>
<path fill-rule="evenodd" clip-rule="evenodd" d="M15.7264 2.18457C16.011 1.92299 16.4539 1.9417 16.7154 2.22637L20.1154 5.92637C20.377 6.21103 20.3583 6.65385 20.0736 6.91543C19.789 7.17702 19.3462 7.15831 19.0846 6.87364L15.6846 3.17364C15.423 2.88898 15.4417 2.44616 15.7264 2.18457Z" fill="#1BA5B0"/>
<path fill-rule="evenodd" clip-rule="evenodd" d="M13.027 6.98399C13.312 6.72276 13.7548 6.74201 14.016 7.02699L16.216 9.42699C16.4772 9.71198 16.458 10.1548 16.173 10.416C15.888 10.6772 15.4452 10.658 15.184 10.373L12.984 7.97301C12.7228 7.68802 12.742 7.24523 13.027 6.98399Z" fill="#1BA5B0"/>
</g>
<defs>
<clipPath id="clip0_180_467">
<rect width="24" height="24" fill="white"/>
</clipPath>
</defs>
</svg>
