<svg width="24" height="24" viewBox="0 0 24 24" fill="none" xmlns="http://www.w3.org/2000/svg">
<g clip-path="url(#clip0_180_460)">
<path d="M12.8 20.3H7.5C5.9 20.3 4.6 19 4.6 17.4V12.1C4.6 10.5 5.9 9.2 7.5 9.2H12.9C14.5 9.2 15.8 10.5 15.8 12.1V17.5C15.8 19 14.5 20.3 12.8 20.3Z" stroke="#1DA4AF" stroke-width="1.1159" stroke-miterlimit="10"/>
<path d="M13.5 7.3C13.9418 7.3 14.3 6.94182 14.3 6.5C14.3 6.05817 13.9418 5.7 13.5 5.7C13.0582 5.7 12.7 6.05817 12.7 6.5C12.7 6.94182 13.0582 7.3 13.5 7.3Z" fill="#FF8731"/>
<path d="M7.7 13.3C8.14183 13.3 8.5 12.9418 8.5 12.5C8.5 12.0582 8.14183 11.7 7.7 11.7C7.25817 11.7 6.9 12.0582 6.9 12.5C6.9 12.9418 7.25817 13.3 7.7 13.3Z" fill="#FF8731"/>
<path d="M12.5 17.8C12.9418 17.8 13.3 17.4418 13.3 17C13.3 16.5582 12.9418 16.2 12.5 16.2C12.0582 16.2 11.7 16.5582 11.7 17C11.7 17.4418 12.0582 17.8 12.5 17.8Z" fill="#FF8731"/>
<path d="M10.2 15.7C10.6418 15.7 11 15.3418 11 14.9C11 14.4582 10.6418 14.1 10.2 14.1C9.75817 14.1 9.4 14.4582 9.4 14.9C9.4 15.3418 9.75817 15.7 10.2 15.7Z" fill="#FF8731"/>
<path d="M18 7.3C18.4418 7.3 18.8 6.94182 18.8 6.5C18.8 6.05817 18.4418 5.7 18 5.7C17.5582 5.7 17.2 6.05817 17.2 6.5C17.2 6.94182 17.5582 7.3 18 7.3Z" fill="#FF8731"/>
<path d="M18 12.5C18.4418 12.5 18.8 12.1418 18.8 11.7C18.8 11.2582 18.4418 10.9 18 10.9C17.5582 10.9 17.2 11.2582 17.2 11.7C17.2 12.1418 17.5582 12.5 18 12.5Z" fill="#FF8731"/>
<path d="M10.2 7.70001V6.50001C10.2 4.90001 11.5 3.60001 13.1 3.60001H18.5C20.1 3.60001 21.4 4.90001 21.4 6.50001V11.9C21.4 13.5 20.1 14.8 18.5 14.8H17.3" stroke="#1DA4AF" stroke-width="1.1159" stroke-miterlimit="10" stroke-linecap="round"/>
</g>
<defs>
<clipPath id="clip0_180_460">
<rect width="17.9" height="17.9" fill="white" transform="translate(4 3)"/>
</clipPath>
</defs>
</svg>
