<svg width="24" height="24" viewBox="0 0 24 24" fill="none" xmlns="http://www.w3.org/2000/svg">
<path fill-rule="evenodd" clip-rule="evenodd" d="M20.7709 8.3172C21.5306 9.42856 21.8549 11.0506 21.9964 12.5124C22.151 14.1102 22.0992 15.6729 22.0483 16.5381C22.0459 16.5784 22.0398 16.6184 22.03 16.6575L22.0245 16.6797C21.9276 17.0675 21.8129 17.5263 21.5808 17.9904C21.5688 18.0145 21.5553 18.0378 21.5403 18.0602C20.7192 19.2919 19.3754 19.9778 18.0247 20.3843C16.6675 20.7928 15.2089 20.9467 14.0563 21.047L14.0463 21.0478C11.1909 21.2518 8.08085 21.0527 5.25498 19.9014L5.24415 19.897C5.19755 19.877 5.14883 19.8562 5.09823 19.8346C4.78157 19.6999 4.3931 19.5345 4.0151 19.3398C3.57866 19.115 3.1102 18.8286 2.7408 18.4592L2.73072 18.4489C1.96779 17.6513 1.89256 16.4957 2.0513 15.4193C2.21385 14.317 2.64695 13.1142 3.13157 12.0238C3.61935 10.9262 4.17542 9.90734 4.60759 9.16534C4.82415 8.79354 5.01068 8.4894 5.14356 8.27748C5.18237 8.21557 5.21663 8.1615 5.24575 8.11587C5.24414 8.03754 5.24247 7.93932 5.24126 7.82565C5.23808 7.52624 5.23805 7.11712 5.25088 6.6809C5.26365 6.24668 5.28943 5.77528 5.33953 5.35448C5.38645 4.96036 5.46356 4.52078 5.61916 4.20958C5.63658 4.17473 5.6571 4.14152 5.68048 4.11036C5.8729 3.85379 6.14208 3.72834 6.37687 3.66747C6.61116 3.60673 6.86083 3.59651 7.09339 3.60758C7.55897 3.62975 8.08219 3.74467 8.54881 3.87429C9.02271 4.00593 9.47265 4.16261 9.80171 4.2852C9.91978 4.32919 10.0231 4.36911 10.1074 4.40234C10.5554 4.25185 11.0793 4.17069 11.5944 4.12642C12.2287 4.07191 12.906 4.06922 13.5203 4.08841C14.1363 4.10766 14.6994 4.1493 15.1081 4.18601C15.3128 4.2044 15.4795 4.22162 15.5956 4.23433C15.6094 4.23584 15.6226 4.23729 15.6349 4.23867C15.7049 4.21654 15.7992 4.18724 15.9134 4.15298C16.1512 4.08165 16.4767 3.98837 16.85 3.89333C17.8568 3.30479 18.7454 3.06896 19.4871 3.33159C20.2824 3.61321 20.6227 4.35755 20.7706 5.00548C20.9227 5.6717 20.9212 6.433 20.8842 7.0689C20.8594 7.49661 20.8123 7.93313 20.7793 8.23919C20.7764 8.26625 20.7736 8.29228 20.7709 8.3172ZM15.6193 5.54436L15.6177 5.54416L15.6102 5.54325L15.5788 5.53951C15.5508 5.53621 15.5088 5.53138 15.4544 5.52543C15.3455 5.51352 15.1872 5.49715 14.9919 5.4796C14.6006 5.44445 14.0637 5.40483 13.4797 5.38658C12.894 5.36827 12.2713 5.37183 11.7056 5.42045C11.1274 5.47014 10.662 5.56294 10.3603 5.69495C10.1967 5.76652 10.0109 5.76757 9.8465 5.69787C9.84649 5.69787 9.8465 5.69788 9.8465 5.69787L9.84527 5.69735L9.8395 5.69493L9.81456 5.68455C9.79216 5.67529 9.75847 5.66148 9.71496 5.644C9.62787 5.60902 9.50179 5.55947 9.34829 5.50229C9.03985 5.38738 8.62729 5.24406 8.20119 5.1257C7.76781 5.00532 7.35353 4.92024 7.03161 4.90491C6.89594 4.89845 6.79895 4.90568 6.73526 4.91757C6.6999 5.0424 6.66136 5.238 6.62922 5.50801C6.58557 5.87471 6.56135 6.30331 6.54912 6.71909C6.53695 7.13287 6.53692 7.52375 6.53999 7.81184C6.54152 7.95561 6.54381 8.07315 6.54571 8.15436L6.54811 8.24752L6.54881 8.27121L6.54903 8.27818C6.54903 8.2782 6.54903 8.27816 6.54903 8.27818C6.55351 8.41294 6.51594 8.54599 6.44152 8.65843L6.4389 8.6624L6.42948 8.67677L6.39109 8.73588C6.35719 8.78839 6.30717 8.86659 6.24394 8.96743C6.11744 9.16918 5.93835 9.46114 5.7299 9.81902C5.31208 10.5364 4.78065 11.5112 4.31843 12.5512C3.85305 13.5983 3.47365 14.6767 3.3362 15.6088C3.1956 16.5623 3.33093 17.1928 3.66455 17.5461C3.89491 17.7747 4.22434 17.9866 4.6099 18.1852C4.94202 18.3563 5.2822 18.5012 5.60088 18.637C5.65128 18.6584 5.70113 18.6797 5.75033 18.7008C8.32158 19.747 11.2075 19.9479 13.9488 19.7526C15.0951 19.6528 16.4343 19.5066 17.6503 19.1406C18.8587 18.777 19.8546 18.2227 20.4369 17.3735C20.5813 17.074 20.6633 16.7678 20.7552 16.4015C20.803 15.5567 20.8456 14.1042 20.7036 12.6375C20.5547 11.0989 20.2144 9.69296 19.5903 8.90239C19.4883 8.7732 19.4392 8.6101 19.4528 8.44607C19.4635 8.31864 19.4788 8.17818 19.4958 8.0225C19.5272 7.73577 19.5642 7.39738 19.5876 6.99359C19.6226 6.39199 19.6148 5.7783 19.5044 5.29451C19.3898 4.79244 19.2114 4.61178 19.0535 4.5559C18.8627 4.48833 18.3927 4.48173 17.4341 5.05685C17.3792 5.08982 17.3197 5.11447 17.2575 5.13001C16.8694 5.22703 16.5294 5.32418 16.2866 5.39701C16.1654 5.43338 16.0688 5.46355 16.0031 5.48445C15.9703 5.4949 15.9452 5.50301 15.9287 5.50842L15.9103 5.51443L15.9061 5.51582C15.9061 5.51582 15.9061 5.51581 15.9061 5.51582M15.6193 5.54436C15.6193 5.54436 15.6193 5.54436 15.6193 5.54436V5.54436Z" fill="#18A5B0"/>
<path fill-rule="evenodd" clip-rule="evenodd" d="M11.9462 8.77151C11.7923 8.80781 11.5661 9.05988 11.6677 9.49077C11.7693 9.92165 12.0843 10.0461 12.2382 10.0098C12.3922 9.97353 12.6183 9.72146 12.5167 9.29057C12.4151 8.85969 12.1002 8.7352 11.9462 8.77151ZM10.7648 9.70367C10.5875 8.95198 10.9197 8.06042 11.7333 7.86858C12.5469 7.67673 13.2424 8.32597 13.4197 9.07767C13.5969 9.82937 13.2647 10.7209 12.4511 10.9128C11.6375 11.1046 10.942 10.4554 10.7648 9.70367Z" fill="#15A5B0"/>
<path fill-rule="evenodd" clip-rule="evenodd" d="M17.2638 8.07194C17.1098 8.10825 16.8837 8.36032 16.9853 8.79121C17.0869 9.22209 17.4018 9.34658 17.5558 9.31027C17.7097 9.27397 17.9359 9.0219 17.8343 8.59101C17.7327 8.16013 17.4177 8.03564 17.2638 8.07194ZM16.0823 9.00411C15.9051 8.25241 16.2372 7.36086 17.0509 7.16901C17.8645 6.97717 18.5599 7.62641 18.7372 8.37811C18.9144 9.1298 18.5823 10.0214 17.7687 10.2132C16.9551 10.405 16.2596 9.75581 16.0823 9.00411Z" fill="#15A5B0"/>
<path fill-rule="evenodd" clip-rule="evenodd" d="M17.9975 11.0803C18.2293 11.1894 18.3288 11.4657 18.2197 11.6975L17.4197 13.3975C17.3554 13.5342 17.2285 13.631 17.0797 13.6569C16.9309 13.6829 16.7788 13.6348 16.672 13.528L15.7721 12.6281L15.0859 13.6573C15.0104 13.7706 14.8889 13.845 14.7537 13.8607C14.6184 13.8765 14.4831 13.832 14.3835 13.7391L12.8835 12.3391C12.6962 12.1643 12.6861 11.8708 12.8609 11.6835C13.0357 11.4962 13.3292 11.4861 13.5165 11.6609L14.6171 12.6881L15.3141 11.6427C15.3911 11.5271 15.516 11.4521 15.6543 11.4384C15.7926 11.4247 15.9297 11.4737 16.028 11.572L16.8613 12.4053L17.3803 11.3025C17.4894 11.0707 17.7657 10.9712 17.9975 11.0803Z" fill="#12A5B0"/>
<path fill-rule="evenodd" clip-rule="evenodd" d="M3.83922 10.2468C3.86859 9.99234 4.09869 9.80984 4.35318 9.83921L9.55318 10.4392C9.80767 10.4686 9.99017 10.6987 9.96081 10.9532C9.93144 11.2077 9.70133 11.3902 9.44685 11.3608L4.24685 10.7608C3.99236 10.7314 3.80986 10.5013 3.83922 10.2468Z" fill="#F3725E"/>
<path fill-rule="evenodd" clip-rule="evenodd" d="M4.13614 12.5C4.13614 12.2438 4.34381 12.0361 4.59999 12.0361H9.99999C10.2562 12.0361 10.4638 12.2438 10.4638 12.5C10.4638 12.7562 10.2562 12.9638 9.99999 12.9638H4.59999C4.34381 12.9638 4.13614 12.7562 4.13614 12.5Z" fill="#F3725E"/>
<path fill-rule="evenodd" clip-rule="evenodd" d="M22.786 7.8427C22.9281 8.05585 22.8705 8.34384 22.6573 8.48595L19.9573 10.2859C19.7442 10.428 19.4562 10.3705 19.3141 10.1573C19.172 9.94415 19.2296 9.65616 19.4427 9.51405L22.1427 7.71405C22.3559 7.57195 22.6439 7.62955 22.786 7.8427Z" fill="#F3725E"/>
<path fill-rule="evenodd" clip-rule="evenodd" d="M23.4372 10.1449C23.5228 10.3863 23.3966 10.6515 23.1551 10.7371L20.0551 11.8371C19.8137 11.9228 19.5485 11.7965 19.4629 11.5551C19.3772 11.3137 19.5035 11.0485 19.7449 10.9629L22.8449 9.86285C23.0863 9.77718 23.3515 9.90345 23.4372 10.1449Z" fill="#F3725E"/>
</svg>
