<svg width="24" height="24" viewBox="0 0 24 24" fill="none" xmlns="http://www.w3.org/2000/svg">
<path d="M16.3 12.4C16.1 12.4 15.8 12.3 15.7 12.1C15.4 11.7 15.5 11.2 15.9 11C16.8 10.4 17.3 9.40001 17.3 8.30001C17.3 6.80001 16.4 5.60001 15 5.10001C14.6 5.00001 14.3 4.50001 14.5 4.10001C14.6 3.70001 15.1 3.40001 15.5 3.60001C17.6 4.30001 18.9 6.20001 18.9 8.30001C18.9 9.90001 18.1 11.4 16.8 12.3C16.6 12.3 16.4 12.4 16.3 12.4Z" fill="#1DA4AF"/>
<path d="M16.2 20.6C15.7 20.6 15.3 20.2 15.3 19.7C15.3 16.4 12.8 13.8 9.7 13.8C9.2 13.8 8.8 13.4 8.8 12.9C8.8 12.4 9.2 12 9.7 12C13.8 12 17.1 15.5 17.1 19.7C17.1 20.2 16.7 20.6 16.2 20.6Z" fill="#FF8731"/>
<path d="M21.7 20C21.3 20 20.9 19.7 20.9 19.2C20.8 17 19.6 15 17.7 14.1C17.3 13.9 17.1 13.4 17.3 13C17.5 12.6 18 12.4 18.4 12.6C20.8 13.8 22.4 16.2 22.6 19C22.5 19.6 22.2 20 21.7 20Z" fill="#FF8731"/>
<path d="M3.2 20.6C2.7 20.6 2.3 20.2 2.3 19.7C2.3 17.7 3.1 15.7 4.5 14.3C4.8 14 5.4 13.9 5.7 14.3C6 14.6 6.1 15.2 5.7 15.5C4.6 16.6 4 18.1 4 19.7C4.1 20.2 3.7 20.6 3.2 20.6Z" fill="#FF8731"/>
<path d="M9.7 13.8C6.9 13.8 4.7 11.6 4.7 8.8C4.7 6 6.9 3.8 9.7 3.8C12.5 3.8 14.7 6 14.7 8.8C14.7 11.6 12.5 13.8 9.7 13.8ZM9.7 5.5C7.9 5.5 6.4 7 6.4 8.8C6.4 10.6 7.9 12.1 9.7 12.1C11.5 12.1 13 10.6 13 8.8C13 7 11.5 5.5 9.7 5.5Z" fill="#1DA4AF"/>
</svg>
