<svg width="24" height="24" viewBox="0 0 24 24" fill="none" xmlns="http://www.w3.org/2000/svg">
<path fill-rule="evenodd" clip-rule="evenodd" d="M6.725 5.45C6.02541 5.45 5.45 6.02541 5.45 6.725V9.3H6.425C7.52541 9.3 8.35 10.1246 8.35 11.225C8.35 12.3254 7.42541 13.25 6.325 13.25H5.45V15.825C5.45 16.5246 6.02541 17.1 6.725 17.1H9.65V18.225C9.65 19.0451 10.3457 19.8 11.225 19.8C12.1246 19.8 12.9 19.0246 12.9 18.125V17H15.825C16.5246 17 17.1 16.4246 17.1 15.725V12.8H18.225C19.0451 12.8 19.8 12.1043 19.8 11.225C19.8 10.4049 19.1043 9.65 18.225 9.65H17.1V6.725C17.1 6.02541 16.5246 5.45 15.825 5.45H13.35V6.325C13.35 7.42541 12.4254 8.35 11.325 8.35C10.2246 8.35 9.3 7.42541 9.3 6.325V5.45H6.725ZM4 6.725C4 5.22459 5.22459 4 6.725 4H9.325C10.0517 4 10.75 4.55463 10.75 5.325V6.325C10.75 6.62459 11.0254 6.9 11.325 6.9C11.6246 6.9 11.9 6.62459 11.9 6.325V5.325C11.9 4.8226 12.1858 4.53827 12.3016 4.42307C12.3054 4.41932 12.309 4.41574 12.3123 4.41235C12.4341 4.29063 12.5808 4.19904 12.7008 4.13904C12.7979 4.0905 12.999 4 13.225 4H15.825C17.3254 4 18.55 5.22459 18.55 6.725V8.21741C20.1073 8.38552 21.25 9.74625 21.25 11.225C21.25 12.8268 19.9976 14.0678 18.55 14.2316V15.725C18.55 17.2254 17.3254 18.45 15.825 18.45H14.3326C14.1652 20.0031 12.8158 21.25 11.225 21.25C9.62319 21.25 8.38217 19.9976 8.21838 18.55H6.725C5.22459 18.55 4 17.3254 4 15.825V13.125C4 12.7392 4.1856 12.4141 4.39985 12.1998C4.6141 11.9856 4.93921 11.8 5.325 11.8H6.325C6.62459 11.8 6.9 11.5246 6.9 11.225C6.9 10.9254 6.72459 10.75 6.425 10.75H5.425C4.62459 10.75 4 10.1254 4 9.325V6.725Z" fill="#1E9AA6"/>
</svg>
