<svg width="24" height="24" viewBox="0 0 24 24" fill="none" xmlns="http://www.w3.org/2000/svg">
<path fill-rule="evenodd" clip-rule="evenodd" d="M3.03745 3.71505C3.03745 3.33809 3.34303 3.0325 3.72 3.0325H20.28C20.657 3.0325 20.9625 3.33809 20.9625 3.71505V6.06451C20.9625 6.32372 20.8157 6.56056 20.5836 6.67584L20.4279 6.75316C19.278 7.57894 17.9955 8.32253 16.5854 8.75584C15.0618 9.29399 13.4447 9.50513 11.9486 9.50513C10.4471 9.50513 8.93329 9.29249 7.41458 8.75583C6.00443 8.32252 4.72197 7.57894 3.57213 6.75316L3.41643 6.67584C3.18427 6.56056 3.03745 6.32372 3.03745 6.06451V3.71505ZM4.40255 4.3976V5.66882C5.47729 6.43712 6.61751 7.08486 7.82803 7.45477C7.83767 7.45772 7.84724 7.46087 7.85673 7.46424C9.21327 7.94539 10.5747 8.14003 11.9486 8.14003C13.3278 8.14003 14.791 7.94387 16.1433 7.46424C16.1528 7.46087 16.1623 7.45772 16.172 7.45477C17.3825 7.08486 18.5227 6.43712 19.5974 5.66882V4.3976H4.40255Z" fill="#F37261"/>
<path fill-rule="evenodd" clip-rule="evenodd" d="M3.39061 7.81617C3.60847 7.69613 3.87438 7.70411 4.08464 7.837C5.17778 8.52786 6.3619 9.11439 7.5345 9.50257C7.60185 9.52487 7.6651 9.55745 7.72208 9.599C7.83762 9.63371 7.94308 9.69879 8.02663 9.78906C8.15582 9.92864 8.22091 10.1158 8.20622 10.3054C8.09617 11.7262 7.6814 12.9984 7.03262 13.9355C6.79079 14.2849 6.50941 14.5959 6.1936 14.8486C6.61288 15.1828 6.97264 15.6192 7.26401 16.1098C7.92946 17.2304 8.31112 18.7351 8.31112 20.3656V21.3871C8.31112 21.7641 8.00553 22.0696 7.62857 22.0696H3.72C3.34303 22.0696 3.03745 21.7641 3.03745 21.3871V8.41398C3.03745 8.16524 3.17276 7.9362 3.39061 7.81617ZM4.40255 14.1653C4.91232 14.1408 5.44634 13.8286 5.91022 13.1585C6.32743 12.5559 6.65048 11.7074 6.79221 10.6907C5.97928 10.4002 5.17418 10.0301 4.40255 9.6079V14.1653ZM4.40255 15.5336C4.97746 15.5615 5.58608 15.9578 6.09026 16.8068C6.60767 17.6782 6.94602 18.9316 6.94602 20.3656V20.7045H4.40255V15.5336Z" fill="#1BA5B0"/>
<path fill-rule="evenodd" clip-rule="evenodd" d="M20.6094 7.81617C20.8272 7.9362 20.9625 8.16524 20.9625 8.41398V21.2849C20.9625 21.6619 20.657 21.9675 20.28 21.9675H16.3714C15.9945 21.9675 15.6889 21.6619 15.6889 21.2849V20.3656C15.6889 18.7361 16.0701 17.2295 16.738 16.1193C17.0216 15.6478 17.3716 15.228 17.7794 14.9078C17.4719 14.6507 17.1988 14.3389 16.9646 13.9953C16.3203 13.05 15.9045 11.7817 15.7939 10.4096C15.7778 10.2094 15.8507 10.0121 15.9933 9.87054L16.4743 10.3548C15.9933 9.87054 15.9932 9.87066 15.9933 9.87054L15.9943 9.86958L15.9953 9.86857L15.9975 9.86642L16.0025 9.86158L16.0149 9.84987C16.0242 9.84125 16.0358 9.83081 16.0495 9.81914C16.0762 9.79641 16.1144 9.76602 16.1618 9.73465C16.2156 9.69901 16.3336 9.62612 16.4947 9.59056C17.675 9.09802 18.8461 8.51278 19.9153 7.837C20.1256 7.70411 20.3915 7.69613 20.6094 7.81617ZM17.2073 10.7716C17.3486 11.7551 17.6714 12.6086 18.0926 13.2265C18.5568 13.9075 19.0834 14.2318 19.5755 14.266C19.5828 14.2661 19.5901 14.2662 19.5974 14.2663V9.61042C18.8193 10.0417 18.0133 10.4286 17.2073 10.7716ZM19.538 15.6313C19.5578 15.6322 19.5776 15.6329 19.5974 15.6334V20.6024H17.054V20.3656C17.054 18.9305 17.3927 17.6791 17.9077 16.8229C18.4022 16.001 18.9874 15.6385 19.538 15.6313Z" fill="#1BA5B0"/>
</svg>
